<svg fill="#FF0000" xmlns="http://www.w3.org/2000/svg" xmlns:xlink="http://www.w3.org/1999/xlink" version="1.1" x="0px" y="0px" viewBox="0 0 24 24" enable-background="new 0 0 24 24" xml:space="preserve"><g><path d="M21.919,6.156H2.081c-0.276,0-0.5-0.224-0.5-0.5V3.201c0-0.276,0.224-0.5,0.5-0.5h5.217V0.57c0-0.276,0.224-0.5,0.5-0.5   h8.354c0.276,0,0.5,0.224,0.5,0.5v2.131h5.269c0.276,0,0.5,0.224,0.5,0.5v2.455C22.419,5.933,22.196,6.156,21.919,6.156z    M2.581,5.156h18.839V3.701h-5.269c-0.276,0-0.5-0.224-0.5-0.5V1.07H8.297v2.131c0,0.276-0.224,0.5-0.5,0.5H2.581V5.156z"></path><g><path d="M12.739,23.93l-8.533-0.002c-1.47,0-1.873-0.39-1.874-1.813C2.327,16.9,2.326,11.687,2.325,6.472    c0-0.19,0.009-0.342,0.021-0.524l0.019-0.315c0.013-0.267,0.232-0.476,0.499-0.476h18.244c0.262,0,0.479,0.201,0.498,0.462    l0.027,0.293c0.021,0.225,0.042,0.445,0.043,0.665c0.001,5.166-0.001,10.33-0.005,15.494c-0.001,1.509-0.359,1.856-1.915,1.857    L12.739,23.93z M3.334,6.156c-0.006,0.098-0.01,0.187-0.01,0.275c0.001,5.254,0.002,10.468,0.007,15.683    c0.001,0.813,0.001,0.813,0.874,0.813l8.533,0.002l7.017-0.002c0.494,0,0.777-0.027,0.842-0.08    c0.048-0.06,0.073-0.322,0.073-0.777c0.004-5.164,0.006-10.328,0.005-15.492c0-0.14-0.011-0.279-0.024-0.422H3.334z"></path><g><path d="M7.042,21.818c-0.276,0-0.5-0.224-0.5-0.5V8.147c0-0.276,0.224-0.5,0.5-0.5s0.5,0.224,0.5,0.5v13.171     C7.542,21.595,7.319,21.818,7.042,21.818z"></path><path d="M11.946,21.818c-0.276,0-0.5-0.224-0.5-0.5V8.147c0-0.276,0.224-0.5,0.5-0.5s0.5,0.224,0.5,0.5v13.171     C12.446,21.595,12.222,21.818,11.946,21.818z"></path><path d="M16.958,21.818c-0.276,0-0.5-0.224-0.5-0.5V8.147c0-0.276,0.224-0.5,0.5-0.5s0.5,0.224,0.5,0.5v13.171     C17.458,21.595,17.234,21.818,16.958,21.818z"></path></g></g><path d="M17.856,3.701H6.144c-0.276,0-0.5-0.224-0.5-0.5s0.224-0.5,0.5-0.5h11.712c0.276,0,0.5,0.224,0.5,0.5   S18.132,3.701,17.856,3.701z"></path></g></svg>